<?xml version="1.0" encoding="utf-8"?>
<!-- Generator: Adobe Illustrator 28.1.0, SVG Export Plug-In . SVG Version: 6.00 Build 0)  -->
<svg version="1.1" id="Capa_1" xmlns="http://www.w3.org/2000/svg" xmlns:xlink="http://www.w3.org/1999/xlink" x="0px" y="0px"
	 viewBox="0 0 511.28 511.89" style="enable-background:new 0 0 511.28 511.89;" xml:space="preserve">
<style type="text/css">
	.st0{fill:#FEC007;}
</style>
<g>
	<path class="st0" d="M6.09,199.87c0.35-0.3,0.89-0.53,1.02-0.9c4.47-12.77,13.98-18.28,26.99-19.38
		c34.1-2.89,68.18-6.01,102.27-9.05c11.15-0.99,22.29-2.11,33.45-2.98c3.34-0.26,4.97-1.73,6.28-4.81
		c18.18-42.8,36.44-85.58,54.84-128.29c7.53-17.49,28.53-22.3,42.34-9.94c3.59,3.22,5.81,7.31,7.68,11.68
		c17.86,41.88,35.83,83.72,53.54,125.68c1.73,4.09,4.03,5.44,8.19,5.8c35.38,3.07,70.75,6.33,106.13,9.55
		c10.66,0.97,21.32,1.89,31.97,2.97c11.52,1.17,19.32,7.49,22.82,18.35c3.52,10.93,0.46,20.61-8.1,28.18
		c-26.39,23.32-52.92,46.49-79.4,69.71c-8.42,7.38-16.74,14.89-25.33,22.07c-2.84,2.38-3.63,4.51-2.77,8.21
		c10.34,44.84,20.48,89.72,30.7,134.59c4,17.55-5.7,32.02-23.1,34.18c-6.57,0.82-12.39-1.42-17.96-4.76
		c-38.8-23.26-77.69-46.4-116.41-69.8c-4.15-2.51-7.02-2.6-11.22-0.06c-38.86,23.48-77.87,46.72-116.87,69.97
		c-14.22,8.48-29.83,5.23-37.88-7.76c-4.06-6.56-4.83-13.64-3.14-21.07c10.13-44.55,20.19-89.13,30.52-133.63
		c1.14-4.89,0.21-7.72-3.62-11.04c-33.59-29.14-66.9-58.62-100.47-87.78c-5.81-5.05-10.08-10.78-12.45-18.01
		C6.09,207.66,6.09,203.77,6.09,199.87z"/>
</g>
</svg>
