<?xml version="1.0" encoding="utf-8"?>
<!-- Generator: Adobe Illustrator 28.1.0, SVG Export Plug-In . SVG Version: 6.00 Build 0)  -->
<svg version="1.1" id="Capa_1" xmlns="http://www.w3.org/2000/svg" xmlns:xlink="http://www.w3.org/1999/xlink" x="0px" y="0px"
	 viewBox="0 0 595.28 841.89" style="enable-background:new 0 0 595.28 841.89;" xml:space="preserve">
<style type="text/css">
	.st0{fill:#252E82;}
</style>
<path class="st0" d="M353.36,625.49c-1.86,0-3.73,0-5.59,0c-3.26-2.41-6.88-4.46-9.72-7.3c-12.61-12.58-25.02-25.36-37.42-38.13
	c-0.99-1.02-1.41-2.58-2.1-3.88c-0.61,0.24-1.23,0.48-1.84,0.72c-0.79,1.07-1.47,2.24-2.39,3.18
	c-12.44,12.74-24.84,25.54-37.45,38.11c-2.84,2.83-6.46,4.89-9.72,7.3c-1.86,0-3.73,0-5.59,0c-3.21-2.27-6.81-4.15-9.56-6.89
	c-11.52-11.44-22.81-23.12-34.15-34.74c-2.22-2.27-4.31-4.68-7.1-7.73c-1.2,1.65-1.87,2.84-2.78,3.78
	c-8.79,9.09-17.63,18.13-26.42,27.22c-4.4,4.55-9.56,6.34-15.55,3.91c-6.04-2.45-8.28-7.45-8.28-13.73
	c0.02-74.53-0.25-149.07,0.16-223.6c0.2-37.08,12.42-70.52,36.39-98.68c37.61-44.18,85.85-63.82,143.78-56.79
	c41.95,5.09,76.15,25.38,102.72,57.88c24.79,30.32,36.6,65.5,36.5,104.78c-0.17,71.47-0.05,142.94-0.06,214.42
	c0,1.73,0.04,3.48-0.21,5.18c-1.11,7.62-7.58,12.84-15.05,11.27c-3.25-0.68-6.46-2.99-9.03-5.29
	c-10.22-9.12-20.18-18.52-30.24-27.82c-0.27-0.91-0.95,0.46-1.96,1.49c-12.54,12.87-25.04,25.78-37.77,38.46
	C360.18,621.34,356.58,623.22,353.36,625.49z M191.05,389.76c0.06,21.78,18.3,39.97,39.96,39.86c21.67-0.11,39.96-18.51,39.85-40.08
	c-0.12-21.78-18.27-39.77-40.07-39.72C208.89,349.88,190.99,367.88,191.05,389.76z M403.86,389.62
	c-0.02-21.89-17.98-39.82-39.88-39.8c-21.81,0.02-39.96,18.13-39.93,39.86c0.03,21.64,18.39,39.98,39.99,39.94
	C385.77,429.59,403.88,411.4,403.86,389.62z"/>
</svg>
