<?xml version="1.0" encoding="utf-8"?>
<!-- Generator: Adobe Illustrator 28.1.0, SVG Export Plug-In . SVG Version: 6.00 Build 0)  -->
<svg version="1.1" id="Capa_1" xmlns="http://www.w3.org/2000/svg" xmlns:xlink="http://www.w3.org/1999/xlink" x="0px" y="0px"
	 viewBox="0 0 57.28 49.89" style="enable-background:new 0 0 57.28 49.89;" xml:space="preserve">
<path d="M52.5,11h-48c-1.1,0-2-0.9-2-2s0.9-2,2-2h48c1.1,0,2,0.9,2,2S53.6,11,52.5,11z"/>
<path d="M52.5,26.5h-48c-1.1,0-2-0.9-2-2s0.9-2,2-2h48c1.1,0,2,0.9,2,2S53.6,26.5,52.5,26.5z"/>
<path d="M52.5,42h-48c-1.1,0-2-0.9-2-2s0.9-2,2-2h48c1.1,0,2,0.9,2,2S53.6,42,52.5,42z"/>
</svg>
